<?xml version="1.0" encoding="UTF-8"?><svg version="1.1" viewBox="0 0 48 48" xmlns="http://www.w3.org/2000/svg"><path fill="#000" fill-rule="evenodd" d="M37 47H11c-2.209 0-4-1.791-4-4V5c0-2.209 1.791-4 4-4h18.973c.002 0 .005 0 .007 0H30v0c.32 0 .593.161.776.395l9.829 9.829c.235.183.395.456.395.776v0 .021c0 .002 0 .003 0 .005V43c0 2.209-1.791 4-4 4ZM31 4.381V11h6.619L31 4.381ZM39 13h-9c-.553 0-1-.448-1-1V3H11c-1.104 0-2 .896-2 2v38c0 1.104.896 2 2 2h26c1.104 0 2-.896 2-2V13Zm-6 26H15c-.553 0-1-.447-1-1 0-.552.447-1 1-1h18c.553 0 1 .448 1 1 0 .553-.447 1-1 1Zm0-8H15c-.553 0-1-.447-1-1 0-.552.447-1 1-1h18c.553 0 1 .448 1 1 0 .553-.447 1-1 1Zm0-8H15c-.553 0-1-.447-1-1 0-.552.447-1 1-1h18c.553 0 1 .448 1 1 0 .553-.447 1-1 1Z"/></svg>